<?xml version="1.0" encoding="UTF-8" standalone="no"?>
<svg width="48px" height="48px" viewBox="0 0 48 48" version="1.1" xmlns="http://www.w3.org/2000/svg" xmlns:xlink="http://www.w3.org/1999/xlink" xmlns:sketch="http://www.bohemiancoding.com/sketch/ns">
    <!-- Generator: Sketch 3.3.3 (12072) - http://www.bohemiancoding.com/sketch -->
    <title>WdeB</title>
    <desc>Logo of Wouter de Bres</desc>
    <defs>
        <path d="M375.3,468 L380.395848,468 C382.384314,468 384,469.60866 384,471.593042 L384,488.406958 C384,490.388026 382.386117,492 380.395291,492 C380.395291,492 381.57779,492 380.366685,492 C379.92338,492 379.0245,491.931169 378.227568,491.230295 L348.791393,461.791582 L348.791393,461.791582 C348.347568,461.202467 348,460.572805 348,460.045564 L348,459.601645 C348,457.620129 349.60866,456 351.593042,456 L368.406958,456 C370.388026,456 372,457.611965 372,459.600424 C372,459.600424 372,461.571459 372,464.640015 L372,464.640015 L372.000534,464.640015 C372.000179,464.659967 372,464.679963 372,464.7 C372,466.52254 373.47746,468 375.3,468 Z M341.666293,468.680492 C340.89699,468.062885 340.057042,468 339.633315,468 C338.42221,468 339.604709,468 339.604709,468 C337.613883,468 336,469.611974 336,471.593042 L336,488.406958 C336,490.39134 337.615686,492 339.604152,492 L344.7,492 L344.7,492 C346.52254,492 348,493.47746 348,495.3 C348,495.320037 347.999821,495.340033 347.999466,495.359985 L348,495.359985 L348,495.359985 C348,498.428541 348,500.399576 348,500.399576 C348,502.388035 349.611974,504 351.593042,504 L368.406958,504 C370.39134,504 372,502.379871 372,500.398355 L372,499.954436 C372,499.429183 371.655047,498.802279 371.213622,498.215082 L341.666293,468.680492 L341.666293,468.680492 Z" id="path-1"></path>
    </defs>
    <g id="Page-1" stroke="none" stroke-width="1" fill="none" fill-rule="evenodd" sketch:type="MSPage">
        <g id="Desktop-HD-Copy-15" sketch:type="MSArtboardGroup" transform="translate(-336.000000, -456.000000)">
            <g id="Page-1---Intro" sketch:type="MSLayerGroup" transform="translate(0.000000, -3.000000)">
                <g id="cover" transform="translate(0.000000, 3.000000)">
                    <g id="Rectangle-2-copy-5">
                        <g>
                            <use fill="rgba(000,000,000,0.45)" fill-rule="evenodd" sketch:type="MSShapeGroup" xlink:href="#path-1"></use>
                            <use fill="none" xlink:href="#path-1"></use>
                        </g>
                    </g>
                </g>
            </g>
        </g>
    </g>
</svg>